<mxfile host="Electron" modified="2023-08-14T10:38:29.749Z" agent="Mozilla/5.0 (Windows NT 10.0; Win64; x64) AppleWebKit/537.36 (KHTML, like Gecko) draw.io/21.6.8 Chrome/114.0.5735.289 Electron/25.5.0 Safari/537.36" etag="GCuo6k23LyB1B35s0vU-" version="21.6.8" type="device" pages="2">
  <diagram id="yhYb1_Pa4KEcqXSGW6nk" name="Page-1">
    <mxGraphModel dx="1220" dy="828" grid="1" gridSize="10" guides="1" tooltips="1" connect="1" arrows="1" fold="1" page="1" pageScale="1" pageWidth="1169" pageHeight="827" math="0" shadow="0">
      <root>
        <mxCell id="0" />
        <mxCell id="1" parent="0" />
        <mxCell id="2" value="Msg" style="whiteSpace=wrap;html=1;fillColor=#ffe6cc;strokeColor=#d79b00;" parent="1" vertex="1">
          <mxGeometry x="350" y="409" width="70" height="30" as="geometry" />
        </mxCell>
        <mxCell id="3" value="MsgPacker" style="whiteSpace=wrap;html=1;fillColor=#ffe6cc;strokeColor=#d79b00;" parent="1" vertex="1">
          <mxGeometry x="455" y="409" width="75" height="30" as="geometry" />
        </mxCell>
        <mxCell id="4" value="JsonPacker" style="whiteSpace=wrap;html=1;fillColor=#ffe6cc;strokeColor=#d79b00;" parent="1" vertex="1">
          <mxGeometry x="455" y="349" width="75" height="30" as="geometry" />
        </mxCell>
        <mxCell id="6" value="" style="endArrow=block;dashed=1;endFill=0;endSize=12;html=1;entryX=0.5;entryY=0;entryDx=0;entryDy=0;exitX=0.5;exitY=1;exitDx=0;exitDy=0;fillColor=#ffe6cc;strokeColor=#d79b00;" parent="1" source="4" target="3" edge="1">
          <mxGeometry width="160" relative="1" as="geometry">
            <mxPoint x="480" y="259" as="sourcePoint" />
            <mxPoint x="540" y="429" as="targetPoint" />
          </mxGeometry>
        </mxCell>
        <mxCell id="7" value="" style="endArrow=open;endFill=1;endSize=12;html=1;exitX=0;exitY=0.5;exitDx=0;exitDy=0;entryX=1;entryY=0.5;entryDx=0;entryDy=0;fillColor=#ffe6cc;strokeColor=#d79b00;" parent="1" source="3" target="2" edge="1">
          <mxGeometry width="160" relative="1" as="geometry">
            <mxPoint x="380" y="429" as="sourcePoint" />
            <mxPoint x="540" y="429" as="targetPoint" />
          </mxGeometry>
        </mxCell>
        <mxCell id="8" value="Server" style="whiteSpace=wrap;html=1;" parent="1" vertex="1">
          <mxGeometry x="700" y="497.5" width="50" height="110" as="geometry" />
        </mxCell>
        <mxCell id="pMTz1dGYJ1eAVEwI1yKL-49" style="edgeStyle=orthogonalEdgeStyle;rounded=0;orthogonalLoop=1;jettySize=auto;html=1;" parent="1" source="9" target="34" edge="1">
          <mxGeometry relative="1" as="geometry" />
        </mxCell>
        <mxCell id="pMTz1dGYJ1eAVEwI1yKL-50" style="edgeStyle=orthogonalEdgeStyle;rounded=0;orthogonalLoop=1;jettySize=auto;html=1;" parent="1" source="9" target="18" edge="1">
          <mxGeometry relative="1" as="geometry" />
        </mxCell>
        <mxCell id="pMTz1dGYJ1eAVEwI1yKL-51" style="edgeStyle=orthogonalEdgeStyle;rounded=0;orthogonalLoop=1;jettySize=auto;html=1;" parent="1" source="9" target="24" edge="1">
          <mxGeometry relative="1" as="geometry" />
        </mxCell>
        <mxCell id="9" value="Client" style="whiteSpace=wrap;html=1;" parent="1" vertex="1">
          <mxGeometry x="30" y="740" width="260" height="40" as="geometry" />
        </mxCell>
        <mxCell id="10" value="Connection" style="whiteSpace=wrap;html=1;fillColor=#dae8fc;strokeColor=#6c8ebf;" parent="1" vertex="1">
          <mxGeometry x="560" y="627.5" width="90" height="30" as="geometry" />
        </mxCell>
        <mxCell id="13" value="Connection&lt;br&gt;Manager" style="whiteSpace=wrap;html=1;fillColor=#dae8fc;strokeColor=#6c8ebf;" parent="1" vertex="1">
          <mxGeometry x="565" y="527.5" width="80" height="47.5" as="geometry" />
        </mxCell>
        <mxCell id="14" value="" style="endArrow=diamondThin;endFill=1;endSize=24;html=1;" parent="1" source="10" target="13" edge="1">
          <mxGeometry width="160" relative="1" as="geometry">
            <mxPoint x="630" y="802.5" as="sourcePoint" />
            <mxPoint x="790" y="802.5" as="targetPoint" />
          </mxGeometry>
        </mxCell>
        <mxCell id="15" value="" style="endArrow=diamondThin;endFill=1;endSize=24;html=1;" parent="1" source="13" target="8" edge="1">
          <mxGeometry width="160" relative="1" as="geometry">
            <mxPoint x="760" y="692.5" as="sourcePoint" />
            <mxPoint x="920" y="692.5" as="targetPoint" />
          </mxGeometry>
        </mxCell>
        <mxCell id="16" value="socket" style="whiteSpace=wrap;html=1;fillColor=#dae8fc;strokeColor=#6c8ebf;" parent="1" vertex="1">
          <mxGeometry x="580" y="710" width="60" height="40" as="geometry" />
        </mxCell>
        <mxCell id="17" value="" style="endArrow=diamondThin;endFill=1;endSize=24;html=1;" parent="1" source="16" target="10" edge="1">
          <mxGeometry width="160" relative="1" as="geometry">
            <mxPoint x="540" y="702.5" as="sourcePoint" />
            <mxPoint x="700" y="702.5" as="targetPoint" />
          </mxGeometry>
        </mxCell>
        <mxCell id="pMTz1dGYJ1eAVEwI1yKL-53" style="edgeStyle=orthogonalEdgeStyle;rounded=0;orthogonalLoop=1;jettySize=auto;html=1;" parent="1" source="18" target="pMTz1dGYJ1eAVEwI1yKL-52" edge="1">
          <mxGeometry relative="1" as="geometry" />
        </mxCell>
        <mxCell id="18" value="Connection" style="whiteSpace=wrap;html=1;fillColor=#dae8fc;strokeColor=#6c8ebf;" parent="1" vertex="1">
          <mxGeometry x="120" y="527.5" width="80" height="30" as="geometry" />
        </mxCell>
        <mxCell id="20" value="MsgQueue" style="whiteSpace=wrap;html=1;fillColor=#ffe6cc;strokeColor=#d79b00;" parent="1" vertex="1">
          <mxGeometry x="790" y="537.5" width="70" height="30" as="geometry" />
        </mxCell>
        <mxCell id="21" value="" style="endArrow=diamondThin;endFill=1;endSize=24;html=1;entryX=1;entryY=0.5;entryDx=0;entryDy=0;exitX=0;exitY=0.5;exitDx=0;exitDy=0;" parent="1" source="20" target="8" edge="1">
          <mxGeometry width="160" relative="1" as="geometry">
            <mxPoint x="980" y="557.5" as="sourcePoint" />
            <mxPoint x="1140" y="557.5" as="targetPoint" />
          </mxGeometry>
        </mxCell>
        <mxCell id="36" style="edgeStyle=none;html=1;entryX=0.5;entryY=1;entryDx=0;entryDy=0;dashed=1;fontSize=12;startArrow=none;startFill=0;" parent="1" source="22" target="35" edge="1">
          <mxGeometry relative="1" as="geometry" />
        </mxCell>
        <mxCell id="22" value="Service&lt;br&gt;Manager" style="whiteSpace=wrap;html=1;fillColor=#d5e8d4;strokeColor=#82b366;" parent="1" vertex="1">
          <mxGeometry x="790" y="497.5" width="70" height="30" as="geometry" />
        </mxCell>
        <mxCell id="23" value="" style="endArrow=diamondThin;endFill=1;endSize=24;html=1;entryX=1;entryY=0.25;entryDx=0;entryDy=0;exitX=0;exitY=0.5;exitDx=0;exitDy=0;" parent="1" source="22" target="8" edge="1">
          <mxGeometry width="160" relative="1" as="geometry">
            <mxPoint x="980" y="557.5" as="sourcePoint" />
            <mxPoint x="1140" y="557.5" as="targetPoint" />
          </mxGeometry>
        </mxCell>
        <mxCell id="24" value="result_waiting_list" style="whiteSpace=wrap;html=1;fillColor=#ffe6cc;strokeColor=#d79b00;" parent="1" vertex="1">
          <mxGeometry x="210" y="627.5" width="150" height="30" as="geometry" />
        </mxCell>
        <mxCell id="34" value="MethodList" style="rounded=0;whiteSpace=wrap;html=1;fontSize=12;fillColor=#d5e8d4;strokeColor=#82b366;" parent="1" vertex="1">
          <mxGeometry x="20" y="630" width="80" height="27.5" as="geometry" />
        </mxCell>
        <mxCell id="35" value="维护&lt;br&gt;Client&amp;lt;-&amp;gt;Service&lt;br&gt;映射关系" style="whiteSpace=wrap;html=1;fontSize=12;fillColor=#d5e8d4;strokeColor=#82b366;" parent="1" vertex="1">
          <mxGeometry x="765" y="400" width="120" height="60" as="geometry" />
        </mxCell>
        <mxCell id="vuD3TyZAoR7QyT98AIXM-40" style="rounded=0;orthogonalLoop=1;jettySize=auto;html=1;" parent="1" source="vuD3TyZAoR7QyT98AIXM-38" target="vuD3TyZAoR7QyT98AIXM-39" edge="1">
          <mxGeometry relative="1" as="geometry" />
        </mxCell>
        <mxCell id="vuD3TyZAoR7QyT98AIXM-38" value="MsgParser" style="whiteSpace=wrap;html=1;" parent="1" vertex="1">
          <mxGeometry x="710" y="310" width="75" height="30" as="geometry" />
        </mxCell>
        <mxCell id="vuD3TyZAoR7QyT98AIXM-39" value="Msg" style="whiteSpace=wrap;html=1;" parent="1" vertex="1">
          <mxGeometry x="820" y="310" width="80" height="30" as="geometry" />
        </mxCell>
        <mxCell id="vuD3TyZAoR7QyT98AIXM-42" style="rounded=0;orthogonalLoop=1;jettySize=auto;html=1;" parent="1" source="vuD3TyZAoR7QyT98AIXM-41" target="vuD3TyZAoR7QyT98AIXM-38" edge="1">
          <mxGeometry relative="1" as="geometry" />
        </mxCell>
        <mxCell id="vuD3TyZAoR7QyT98AIXM-41" value="Socket" style="whiteSpace=wrap;html=1;" parent="1" vertex="1">
          <mxGeometry x="600" y="310" width="80" height="30" as="geometry" />
        </mxCell>
        <mxCell id="pMTz1dGYJ1eAVEwI1yKL-38" value="客户端" style="text;html=1;align=center;verticalAlign=middle;resizable=0;points=[];autosize=1;strokeColor=none;fillColor=none;fontSize=18;fontStyle=1" parent="1" vertex="1">
          <mxGeometry x="140" y="374" width="80" height="40" as="geometry" />
        </mxCell>
        <mxCell id="pMTz1dGYJ1eAVEwI1yKL-47" style="edgeStyle=orthogonalEdgeStyle;rounded=0;orthogonalLoop=1;jettySize=auto;html=1;curved=1;exitX=0.25;exitY=1;exitDx=0;exitDy=0;" parent="1" source="pMTz1dGYJ1eAVEwI1yKL-39" target="pMTz1dGYJ1eAVEwI1yKL-40" edge="1">
          <mxGeometry relative="1" as="geometry">
            <Array as="points">
              <mxPoint x="130" y="70" />
              <mxPoint x="130" y="155" />
            </Array>
          </mxGeometry>
        </mxCell>
        <mxCell id="pMTz1dGYJ1eAVEwI1yKL-48" value="3.转发到真正&lt;br&gt;的服务提供商" style="edgeLabel;html=1;align=center;verticalAlign=middle;resizable=0;points=[];" parent="pMTz1dGYJ1eAVEwI1yKL-47" vertex="1" connectable="0">
          <mxGeometry x="-0.4966" y="-19" relative="1" as="geometry">
            <mxPoint x="19" y="37" as="offset" />
          </mxGeometry>
        </mxCell>
        <mxCell id="pMTz1dGYJ1eAVEwI1yKL-39" value="Server" style="whiteSpace=wrap;html=1;" parent="1" vertex="1">
          <mxGeometry x="150" y="40" width="70" height="30" as="geometry" />
        </mxCell>
        <mxCell id="pMTz1dGYJ1eAVEwI1yKL-41" style="edgeStyle=orthogonalEdgeStyle;rounded=0;orthogonalLoop=1;jettySize=auto;html=1;curved=1;" parent="1" source="pMTz1dGYJ1eAVEwI1yKL-40" target="pMTz1dGYJ1eAVEwI1yKL-39" edge="1">
          <mxGeometry relative="1" as="geometry">
            <Array as="points">
              <mxPoint x="30" y="55" />
            </Array>
          </mxGeometry>
        </mxCell>
        <mxCell id="pMTz1dGYJ1eAVEwI1yKL-42" value="1.注册服务" style="edgeLabel;html=1;align=center;verticalAlign=middle;resizable=0;points=[];" parent="pMTz1dGYJ1eAVEwI1yKL-41" vertex="1" connectable="0">
          <mxGeometry x="-0.2894" y="-1" relative="1" as="geometry">
            <mxPoint x="19" y="13" as="offset" />
          </mxGeometry>
        </mxCell>
        <mxCell id="pMTz1dGYJ1eAVEwI1yKL-40" value="Cient1" style="whiteSpace=wrap;html=1;" parent="1" vertex="1">
          <mxGeometry x="30" y="140" width="60" height="30" as="geometry" />
        </mxCell>
        <mxCell id="pMTz1dGYJ1eAVEwI1yKL-45" style="edgeStyle=orthogonalEdgeStyle;rounded=0;orthogonalLoop=1;jettySize=auto;html=1;curved=1;" parent="1" source="pMTz1dGYJ1eAVEwI1yKL-44" target="pMTz1dGYJ1eAVEwI1yKL-39" edge="1">
          <mxGeometry relative="1" as="geometry">
            <Array as="points">
              <mxPoint x="330" y="55" />
            </Array>
          </mxGeometry>
        </mxCell>
        <mxCell id="pMTz1dGYJ1eAVEwI1yKL-46" value="2.调用服务" style="edgeLabel;html=1;align=center;verticalAlign=middle;resizable=0;points=[];" parent="pMTz1dGYJ1eAVEwI1yKL-45" vertex="1" connectable="0">
          <mxGeometry x="0.0261" relative="1" as="geometry">
            <mxPoint x="-5" y="15" as="offset" />
          </mxGeometry>
        </mxCell>
        <mxCell id="pMTz1dGYJ1eAVEwI1yKL-44" value="Cient2" style="whiteSpace=wrap;html=1;" parent="1" vertex="1">
          <mxGeometry x="280" y="140" width="60" height="30" as="geometry" />
        </mxCell>
        <mxCell id="pMTz1dGYJ1eAVEwI1yKL-52" value="接收msg&lt;br&gt;发送msg" style="text;html=1;align=center;verticalAlign=middle;resizable=0;points=[];autosize=1;strokeColor=none;fillColor=none;" parent="1" vertex="1">
          <mxGeometry x="125" y="457.5" width="70" height="40" as="geometry" />
        </mxCell>
        <mxCell id="pMTz1dGYJ1eAVEwI1yKL-54" value="- 发送完的请求加入等待队列&lt;br&gt;&lt;div style=&quot;text-align: left;&quot;&gt;&lt;span style=&quot;background-color: initial;&quot;&gt;- 收到response后唤醒result并移除&lt;/span&gt;&lt;/div&gt;&lt;div style=&quot;text-align: left;&quot;&gt;&lt;span style=&quot;background-color: initial;&quot;&gt;- 连接断开后也要唤醒&lt;/span&gt;&lt;/div&gt;" style="text;html=1;align=center;verticalAlign=middle;resizable=0;points=[];autosize=1;strokeColor=none;fillColor=none;" parent="1" vertex="1">
          <mxGeometry x="220" y="543" width="210" height="60" as="geometry" />
        </mxCell>
      </root>
    </mxGraphModel>
  </diagram>
  <diagram id="daQDxsTotkg7vVYC3FDz" name="第 2 页">
    <mxGraphModel dx="1221" dy="831" grid="1" gridSize="10" guides="1" tooltips="1" connect="1" arrows="1" fold="1" page="1" pageScale="1" pageWidth="1169" pageHeight="827" math="0" shadow="0">
      <root>
        <mxCell id="0" />
        <mxCell id="1" parent="0" />
        <mxCell id="aVrMGCkJqKDmAWBI_1uk-1" value="BusConnection" style="swimlane;fontStyle=0;childLayout=stackLayout;horizontal=1;startSize=26;fillColor=none;horizontalStack=0;resizeParent=1;resizeParentMax=0;resizeLast=0;collapsible=1;marginBottom=0;whiteSpace=wrap;html=1;" vertex="1" parent="1">
          <mxGeometry x="410" y="150" width="220" height="86" as="geometry" />
        </mxCell>
        <mxCell id="aVrMGCkJqKDmAWBI_1uk-2" value="注册、反注册函数回调（供别人来调用）" style="text;strokeColor=none;fillColor=none;align=left;verticalAlign=top;spacingLeft=4;spacingRight=4;overflow=hidden;rotatable=0;points=[[0,0.5],[1,0.5]];portConstraint=eastwest;whiteSpace=wrap;html=1;" vertex="1" parent="aVrMGCkJqKDmAWBI_1uk-1">
          <mxGeometry y="26" width="220" height="34" as="geometry" />
        </mxCell>
        <mxCell id="aVrMGCkJqKDmAWBI_1uk-3" value="Call、ACall别人" style="text;strokeColor=none;fillColor=none;align=left;verticalAlign=top;spacingLeft=4;spacingRight=4;overflow=hidden;rotatable=0;points=[[0,0.5],[1,0.5]];portConstraint=eastwest;whiteSpace=wrap;html=1;" vertex="1" parent="aVrMGCkJqKDmAWBI_1uk-1">
          <mxGeometry y="60" width="220" height="26" as="geometry" />
        </mxCell>
        <mxCell id="aVrMGCkJqKDmAWBI_1uk-5" value="BusRouter" style="swimlane;fontStyle=0;childLayout=stackLayout;horizontal=1;startSize=26;fillColor=none;horizontalStack=0;resizeParent=1;resizeParentMax=0;resizeLast=0;collapsible=1;marginBottom=0;whiteSpace=wrap;html=1;" vertex="1" parent="1">
          <mxGeometry x="320" y="350" width="140" height="104" as="geometry" />
        </mxCell>
        <mxCell id="aVrMGCkJqKDmAWBI_1uk-6" value="&lt;b&gt;路由表&lt;/b&gt;" style="text;strokeColor=none;fillColor=none;align=left;verticalAlign=top;spacingLeft=4;spacingRight=4;overflow=hidden;rotatable=0;points=[[0,0.5],[1,0.5]];portConstraint=eastwest;whiteSpace=wrap;html=1;" vertex="1" parent="aVrMGCkJqKDmAWBI_1uk-5">
          <mxGeometry y="26" width="140" height="26" as="geometry" />
        </mxCell>
        <mxCell id="aVrMGCkJqKDmAWBI_1uk-7" value="Add、Remove" style="text;strokeColor=none;fillColor=none;align=left;verticalAlign=top;spacingLeft=4;spacingRight=4;overflow=hidden;rotatable=0;points=[[0,0.5],[1,0.5]];portConstraint=eastwest;whiteSpace=wrap;html=1;" vertex="1" parent="aVrMGCkJqKDmAWBI_1uk-5">
          <mxGeometry y="52" width="140" height="26" as="geometry" />
        </mxCell>
        <mxCell id="aVrMGCkJqKDmAWBI_1uk-8" value="Next（） -&amp;gt; 目标是啥" style="text;strokeColor=none;fillColor=none;align=left;verticalAlign=top;spacingLeft=4;spacingRight=4;overflow=hidden;rotatable=0;points=[[0,0.5],[1,0.5]];portConstraint=eastwest;whiteSpace=wrap;html=1;" vertex="1" parent="aVrMGCkJqKDmAWBI_1uk-5">
          <mxGeometry y="78" width="140" height="26" as="geometry" />
        </mxCell>
        <mxCell id="aVrMGCkJqKDmAWBI_1uk-10" value="BusClient" style="swimlane;fontStyle=0;childLayout=stackLayout;horizontal=1;startSize=26;fillColor=none;horizontalStack=0;resizeParent=1;resizeParentMax=0;resizeLast=0;collapsible=1;marginBottom=0;whiteSpace=wrap;html=1;" vertex="1" parent="1">
          <mxGeometry x="90" y="154" width="180" height="78" as="geometry" />
        </mxCell>
        <mxCell id="aVrMGCkJqKDmAWBI_1uk-11" value="BusConnection bus_conn_;" style="text;strokeColor=none;fillColor=none;align=left;verticalAlign=top;spacingLeft=4;spacingRight=4;overflow=hidden;rotatable=0;points=[[0,0.5],[1,0.5]];portConstraint=eastwest;whiteSpace=wrap;html=1;" vertex="1" parent="aVrMGCkJqKDmAWBI_1uk-10">
          <mxGeometry y="26" width="180" height="26" as="geometry" />
        </mxCell>
        <mxCell id="aVrMGCkJqKDmAWBI_1uk-12" value="TcpConnection trans_conn_;" style="text;strokeColor=none;fillColor=none;align=left;verticalAlign=top;spacingLeft=4;spacingRight=4;overflow=hidden;rotatable=0;points=[[0,0.5],[1,0.5]];portConstraint=eastwest;whiteSpace=wrap;html=1;" vertex="1" parent="aVrMGCkJqKDmAWBI_1uk-10">
          <mxGeometry y="52" width="180" height="26" as="geometry" />
        </mxCell>
        <mxCell id="aVrMGCkJqKDmAWBI_1uk-14" value="BusServer" style="swimlane;fontStyle=0;childLayout=stackLayout;horizontal=1;startSize=26;fillColor=none;horizontalStack=0;resizeParent=1;resizeParentMax=0;resizeLast=0;collapsible=1;marginBottom=0;whiteSpace=wrap;html=1;" vertex="1" parent="1">
          <mxGeometry x="80" y="350" width="140" height="104" as="geometry" />
        </mxCell>
        <mxCell id="aVrMGCkJqKDmAWBI_1uk-15" value="BusRouter router" style="text;strokeColor=none;fillColor=none;align=left;verticalAlign=top;spacingLeft=4;spacingRight=4;overflow=hidden;rotatable=0;points=[[0,0.5],[1,0.5]];portConstraint=eastwest;whiteSpace=wrap;html=1;" vertex="1" parent="aVrMGCkJqKDmAWBI_1uk-14">
          <mxGeometry y="26" width="140" height="26" as="geometry" />
        </mxCell>
        <mxCell id="aVrMGCkJqKDmAWBI_1uk-16" value="+ field: type" style="text;strokeColor=none;fillColor=none;align=left;verticalAlign=top;spacingLeft=4;spacingRight=4;overflow=hidden;rotatable=0;points=[[0,0.5],[1,0.5]];portConstraint=eastwest;whiteSpace=wrap;html=1;" vertex="1" parent="aVrMGCkJqKDmAWBI_1uk-14">
          <mxGeometry y="52" width="140" height="26" as="geometry" />
        </mxCell>
        <mxCell id="aVrMGCkJqKDmAWBI_1uk-17" value="+ field: type" style="text;strokeColor=none;fillColor=none;align=left;verticalAlign=top;spacingLeft=4;spacingRight=4;overflow=hidden;rotatable=0;points=[[0,0.5],[1,0.5]];portConstraint=eastwest;whiteSpace=wrap;html=1;" vertex="1" parent="aVrMGCkJqKDmAWBI_1uk-14">
          <mxGeometry y="78" width="140" height="26" as="geometry" />
        </mxCell>
        <mxCell id="aVrMGCkJqKDmAWBI_1uk-19" value="路由表&lt;br&gt;输入函数名&lt;br&gt;返回BusConnection" style="whiteSpace=wrap;html=1;" vertex="1" parent="1">
          <mxGeometry x="330" y="540" width="120" height="60" as="geometry" />
        </mxCell>
        <mxCell id="aVrMGCkJqKDmAWBI_1uk-20" style="edgeStyle=orthogonalEdgeStyle;rounded=0;orthogonalLoop=1;jettySize=auto;html=1;" edge="1" parent="1" source="aVrMGCkJqKDmAWBI_1uk-11" target="aVrMGCkJqKDmAWBI_1uk-1">
          <mxGeometry relative="1" as="geometry" />
        </mxCell>
        <mxCell id="aVrMGCkJqKDmAWBI_1uk-22" style="edgeStyle=orthogonalEdgeStyle;rounded=0;orthogonalLoop=1;jettySize=auto;html=1;" edge="1" parent="1" source="aVrMGCkJqKDmAWBI_1uk-15" target="aVrMGCkJqKDmAWBI_1uk-5">
          <mxGeometry relative="1" as="geometry" />
        </mxCell>
        <mxCell id="aVrMGCkJqKDmAWBI_1uk-23" style="edgeStyle=orthogonalEdgeStyle;rounded=0;orthogonalLoop=1;jettySize=auto;html=1;exitX=1;exitY=0.5;exitDx=0;exitDy=0;" edge="1" parent="1" source="aVrMGCkJqKDmAWBI_1uk-6" target="aVrMGCkJqKDmAWBI_1uk-19">
          <mxGeometry relative="1" as="geometry" />
        </mxCell>
      </root>
    </mxGraphModel>
  </diagram>
</mxfile>
